<?xml version="1.0" encoding="UTF-8" standalone="no"?>
<!-- Created with Inkscape (http://www.inkscape.org/) -->

<svg
   xmlns:dc="http://purl.org/dc/elements/1.1/"
   xmlns:cc="http://creativecommons.org/ns#"
   xmlns:rdf="http://www.w3.org/1999/02/22-rdf-syntax-ns#"
   xmlns:svg="http://www.w3.org/2000/svg"
   xmlns="http://www.w3.org/2000/svg"
   xmlns:sodipodi="http://sodipodi.sourceforge.net/DTD/sodipodi-0.dtd"
   xmlns:inkscape="http://www.inkscape.org/namespaces/inkscape"
   width="67.73333mm"
   height="67.73333mm"
   viewBox="0 0 67.733331 67.733328"
   version="1.1"
   id="svg8"
   inkscape:version="0.92.3 (2405546, 2018-03-11)"
   sodipodi:docname="favicon.svg"
   inkscape:export-filename="/home/crawford/Projects/Surveying/favicon.png"
   inkscape:export-xdpi="24.000002"
   inkscape:export-ydpi="24.000002">
  <defs
     id="defs2" />
  <sodipodi:namedview
     id="base"
     pagecolor="#ffffff"
     bordercolor="#666666"
     borderopacity="1.0"
     inkscape:pageopacity="0.0"
     inkscape:pageshadow="2"
     inkscape:zoom="0.59541016"
     inkscape:cx="429.8469"
     inkscape:cy="392.95178"
     inkscape:document-units="mm"
     inkscape:current-layer="layer1"
     showgrid="false"
     fit-margin-top="0"
     fit-margin-left="0"
     fit-margin-right="0"
     fit-margin-bottom="0"
     inkscape:window-width="1861"
     inkscape:window-height="1028"
     inkscape:window-x="59"
     inkscape:window-y="24"
     inkscape:window-maximized="1" />
  <metadata
     id="metadata5">
    <rdf:RDF>
      <cc:Work
         rdf:about="">
        <dc:format>image/svg+xml</dc:format>
        <dc:type
           rdf:resource="http://purl.org/dc/dcmitype/StillImage" />
        <dc:title></dc:title>
      </cc:Work>
    </rdf:RDF>
  </metadata>
  <g
     inkscape:label="Layer 1"
     inkscape:groupmode="layer"
     id="layer1"
     transform="translate(2.8835415,-185.0685)">
    <g
       id="g1546"
       transform="matrix(0.32041866,0,0,0.30124821,-2.0098457,176.64573)">
      <path
         inkscape:connector-curvature="0"
         id="path836"
         d="m 92.288679,189.43414 v -63.36771 h 10.583331 10.58334 v 63.36771 63.36771 H 102.87201 92.288679 Z"
         style="fill:#000000;stroke-width:0.26458335" />
      <path
         inkscape:connector-curvature="0"
         id="path834"
         d="m -2.1164239,230.62461 c 0.33567,-0.55582 14.6001529,-24.30791 31.6988519,-52.78242 l 31.088542,-51.77185 10.532803,-0.002 c 5.793042,-0.001 10.485168,0.0873 10.426949,0.19648 -0.05822,0.10914 -14.306799,23.86211 -31.663506,52.78438 L 18.409565,231.63518 H 7.8414161 -2.7267319 Z"
         style="fill:#000000;stroke-width:0.26458335" />
      <path
         inkscape:connector-curvature="0"
         id="path832"
         d="m 186.80139,230.37841 c -1.48217,-2.35061 -62.49813,-104.0719 -62.49813,-104.19225 0,-0.0658 4.73274,-0.11463 10.51719,-0.1084 l 10.51719,0.0113 31.66286,52.77305 31.66287,52.77304 h -10.53476 -10.53477 z"
         style="fill:#000000;stroke-width:0.26458335" />
    </g>
    <g
       transform="matrix(0.02462934,0,0,-0.02264947,8.9152401,211.16069)"
       id="g4">
      <path
         d="m 1664,576 q -152,236 -381,353 61,-104 61,-225 0,-185 -131.5,-316.5 Q 1081,256 896,256 711,256 579.5,387.5 448,519 448,704 448,825 509,929 280,812 128,576 261,371 461.5,249.5 662,128 896,128 1130,128 1330.5,249.5 1531,371 1664,576 Z M 944,960 q 0,20 -14,34 -14,14 -34,14 -125,0 -214.5,-89.5 Q 592,829 592,704 q 0,-20 14,-34 14,-14 34,-14 20,0 34,14 14,14 14,34 0,86 61,147 61,61 147,61 20,0 34,14 14,14 14,34 z m 848,-384 q 0,-34 -20,-69 Q 1632,277 1395.5,138.5 1159,0 896,0 633,0 396.5,139 160,278 20,507 0,542 0,576 q 0,34 20,69 140,229 376.5,368 236.5,139 499.5,139 263,0 499.5,-139 236.5,-139 376.5,-368 20,-35 20,-69 z"
         id="path6"
         inkscape:connector-curvature="0"
         style="fill:currentColor" />
    </g>
  </g>
</svg>
